<?xml version="1.0" encoding="utf-8"?>
<!DOCTYPE svg PUBLIC "-//W3C//DTD SVG 1.1//EN" "http://www.w3.org/Graphics/SVG/1.1/DTD/svg11.dtd">
<svg version="1.1" id="图形" xmlns="http://www.w3.org/2000/svg" xmlns:xlink="http://www.w3.org/1999/xlink" x="0px" y="0px" width="1024px" height="1024px" viewBox="0 0 1024 1024" enable-background="new 0 0 1024 1024" xml:space="preserve">
  <path fill="#272636" d="M122.065592 611.00629m-51.776224 0a50.597 50.597 0 1 0 103.552447 0 50.597 50.597 0 1 0-103.552447 0ZM122.065592 352.111868c-28.593222 0-51.776224-23.171746-51.776224-51.763944 0-28.605501 23.183002-51.774177 51.776224-51.774177 28.593222 0 51.777247 23.167652 51.777247 51.774177C173.841815 328.940123 150.658813 352.111868 122.065592 352.111868zM122.065592 41.464759c-28.593222 0-51.776224-23.183002-51.776224-51.776224 0-28.609595 23.183002-51.788503 51.776224-51.788503 28.593222 0 51.777247 23.178909 51.777247 51.788503C173.841815 18.281757 150.658813 41.464759 122.065592 41.464759zM251.505639 15.575112l698.980555 0 0-51.776224-698.980555 0 0 51.776224ZM251.505639 326.234501l698.980555 0 0-51.7752-698.980555 0 0 51.7752ZM251.505639 636.894913l698.980555 0 0-51.777247-698.980555 0 0 51.777247Z" transform="translate(0, 812) scale(1, -1)"/>
</svg>
