<?xml version="1.0" encoding="utf-8"?>
<!DOCTYPE svg PUBLIC "-//W3C//DTD SVG 1.1//EN" "http://www.w3.org/Graphics/SVG/1.1/DTD/svg11.dtd">
<svg version="1.1" id="图形" xmlns="http://www.w3.org/2000/svg" xmlns:xlink="http://www.w3.org/1999/xlink" x="0px" y="0px" width="1024px" height="1024px" viewBox="0 0 1024 1024" enable-background="new 0 0 1024 1024" xml:space="preserve">
  <path fill="#272636" d="M680.728354 160.673791c121.274064 137.208988 116.320239 346.908988-14.939247 478.166427-136.444579 136.433322-357.662913 136.433322-494.094188 0-136.443555-136.442532-136.443555-357.661889 0-494.105445 131.241067-131.253346 340.927763-136.204102 478.149031-14.942317l265.63187-265.63187 30.889521 30.877241L680.728354 160.673791zM649.273968 189.997654l-28.658713-28.668946c-120.345925-105.622596-303.678394-101.031021-418.524049 13.812587-119.651101 119.651101-119.651101 313.648466 0 433.299567C321.742307 728.090938 515.740696 728.090938 635.39282 608.430628 750.211868 493.619766 754.826979 310.343579 649.273968 189.997654z" transform="translate(0, 812) scale(1, -1)"/>
</svg>
